:SAMPLES-PER-SECOND 30
:FRAME-RANGE 1-2775
:FULLY-SPECIFIED
:DEGREES
2255
root  37.5847 38.2166 60.5994 -0.530243 -56.0547 -2.82045
RightUpLeg  -11.7518 14.174 8.48005
RightLeg  27.3756 -1.0378 -0.822637
RightFoot  -10.5735 -0.0437612 -4.1263
RightToes  1.218e-010 1.26228e-014 -6.01869e-014
Spine  -2.63901 -2.72027 0.568408
Spine1  7.41836 -3.3603 3.62411
HEad  13.3405 -55.3959 0.255964
LeftShoulder1  0.957289 -0.159533 -21.5045
LeftArm  -1.13212 16.809 -47.4657
LeftForeArm  39.5548 1.56497 -13.0395
LeftHand  -0.0201564 5.71389 2.80921
RightShoulder  0.672774 -1.21096 25.8212
RightArm  -20.7767 -4.69368 52.3106
RightForeArm  68.1984 -5.34763 6.30756
RightHand  0.167258 -6.6909 -16.3843
LeftUpLeg  -22.8068 2.83916 7.8827
LeftLeg  53.9097 2.75133 4.53437
LeftFoot  -3.53487 0.555914 -7.82969
LeftToes  5.08156e-010 -6.90346e-011 -6.33378e-011
2256
root  37.243 38.3221 61.646 -0.510559 -60.7708 -2.02775
RightUpLeg  -10.9586 17.1188 7.18387
RightLeg  27.4812 0.578493 0.090019
RightFoot  -11.7197 -0.0922172 -3.94785
RightToes  1.218e-010 1.26228e-014 -6.01869e-014
Spine  -2.79817 -2.37629 0.116403
Spine1  6.88453 -2.92332 2.82343
HEad  11.4592 -53.8959 1.49983
LeftShoulder1  0.936601 -0.0686345 -21.6436
LeftArm  -0.318351 17.8508 -46.6003
LeftForeArm  37.86 0.449544 -13.15
LeftHand  -0.0232612 5.56812 2.69097
RightShoulder  0.72317 -1.03362 25.5478
RightArm  -21.0284 -4.28894 53.0966
RightForeArm  69.7186 -5.1561 6.17511
RightHand  0.191134 -6.85768 -16.4294
LeftUpLeg  -22.5887 1.36228 10.1432
LeftLeg  43.8872 1.08554 1.51869
LeftFoot  -2.44391 0.667707 -8.38453
LeftToes  5.08156e-010 -6.90346e-011 -6.33378e-011
2257
root  36.9019 38.3567 62.6321 -1.2038 -65.1427 -0.628829
RightUpLeg  -10.5557 20.4287 5.72551
RightLeg  28.1705 1.57428 0.679289
RightFoot  -13.0622 -0.141383 -3.53561
RightToes  1.218e-010 1.26228e-014 -6.01869e-014
Spine  -3.3676 -2.27662 -1.19842
Spine1  7.26662 -2.77489 2.31563
HEad  9.62212 -52.3478 3.03299
LeftShoulder1  0.922999 -0.0360966 -21.4978
LeftArm  -0.319128 18.5052 -46.3471
LeftForeArm  38.3189 -0.0953577 -13.0645
LeftHand  -0.0226862 5.50213 3.55269
RightShoulder  0.735332 -0.985443 25.4111
RightArm  -21.4643 -3.53583 53.4267
RightForeArm  70.0855 -5.03675 5.87019
RightHand  0.181223 -6.73905 -16.9406
LeftUpLeg  -20.8654 -1.96072 12.5114
LeftLeg  33.2088 -4.5613 -2.85848
LeftFoot  -3.39397 0.713349 -9.95885
LeftToes  5.08156e-010 -6.90346e-011 -6.33378e-011
2258
root  36.597 38.2374 63.6383 -1.91238 -69.0002 0.628957
RightUpLeg  -10.9527 21.5858 4.02311
RightLeg  30.1417 3.95977 2.24642
RightFoot  -15.0076 -0.227077 -3.92503
RightToes  1.218e-010 1.26228e-014 -6.01869e-014
Spine  -3.66574 -2.46926 -2.52024
Spine1  7.35873 -2.94016 2.02681
HEad  8.68358 -50.8801 3.87377
LeftShoulder1  0.978317 -0.23136 -21.5405
LeftArm  0.803127 18.9375 -45.8705
LeftForeArm  38.2338 -0.784928 -13.2258
LeftHand  -0.0216462 5.53893 3.5925
RightShoulder  0.710933 -1.06079 25.3738
RightArm  -21.6446 -3.52973 53.0809
RightForeArm  68.6231 -3.94533 5.91063
RightHand  0.177128 -6.64726 -17.6881
LeftUpLeg  -19.2874 -7.27593 15.0485
LeftLeg  25.4663 -9.68999 -4.66804
LeftFoot  -3.75326 0.709802 -10.3443
LeftToes  5.08156e-010 -6.90346e-011 -6.33378e-011
2259
root  36.3172 37.9895 64.6878 -1.74908 -72.3492 0.742545
RightUpLeg  -11.532 24.3104 2.88582
RightLeg  32.6444 4.66359 2.97111
RightFoot  -17.3126 -0.287008 -3.25819
RightToes  1.218e-010 1.26228e-014 -6.01869e-014
Spine  -3.79443 -2.81409 -3.79236
Spine1  7.38195 -3.462 2.61686
HEad  8.26884 -49.3109 3.92498
LeftShoulder1  1.07042 -0.591574 -21.3365
LeftArm  0.679371 19.138 -46.3094
LeftForeArm  40.0809 -0.657944 -13.2186
LeftHand  -0.0180669 5.64614 3.82984
RightShoulder  0.623229 -1.33404 25.2563
RightArm  -20.5021 -4.13531 51.842
RightForeArm  65.4666 -1.73443 6.79776
RightHand  0.156563 -6.49826 -17.865
LeftUpLeg  -18.5561 -16.0839 17.5653
LeftLeg  22.1562 -12.9596 -5.41894
LeftFoot  -2.95365 0.845539 -11.2629
LeftToes  5.08156e-010 -6.90346e-011 -6.33378e-011
2260
root  36.0916 37.5553 65.7853 -1.76385 -75.8833 0.825784
RightUpLeg  -12.7409 26.4765 1.41633
RightLeg  36.4964 5.97227 4.47289
RightFoot  -20.3248 -0.328766 -2.43472
RightToes  1.218e-010 1.26228e-014 -6.01869e-014
Spine  -3.4437 -3.02931 -4.93127
Spine1  7.26814 -3.897 3.40812
HEad  7.59259 -47.7148 4.35984
LeftShoulder1  1.17116 -0.98917 -21.1285
LeftArm  0.266053 18.7831 -47.1478
LeftForeArm  41.8097 -0.122725 -13.2181
LeftHand  -0.00221698 6.00137 4.73943
RightShoulder  0.551967 -1.58383 25.6681
RightArm  -19.4453 -4.48069 49.8047
RightForeArm  62.4412 0.392655 7.53889
RightHand  0.106792 -6.17557 -17.7953
LeftUpLeg  -17.9196 -19.6122 18.189
LeftLeg  23.456 -13.9995 -6.24358
LeftFoot  -7.47044 0.735515 -20.262
LeftToes  5.08156e-010 -6.90346e-011 -6.33378e-011
2261
root  35.9747 37.0967 66.6903 -9.28055 -80.4425 8.61823
RightUpLeg  -15.5065 28.4868 -1.62624
RightLeg  41.6998 7.71775 7.03709
RightFoot  -22.5978 -0.391244 -2.41776
RightToes  1.218e-010 1.26228e-014 -6.01869e-014
Spine  -2.60765 -3.03578 -7.91685
Spine1  6.83802 -3.95181 3.05312
HEad  6.69781 -45.6927 5.31347
LeftShoulder1  1.16819 -0.999993 -20.9819
LeftArm  -0.687714 18.3291 -47.8008
LeftForeArm  42.6736 0.0941689 -13.0165
LeftHand  0.00545709 6.22873 4.67533
RightShoulder  0.602244 -1.44304 25.9985
RightArm  -19.0015 -4.68998 48.3897
RightForeArm  59.86 2.33973 7.97201
RightHand  0.112761 -6.21685 -17.7596
LeftUpLeg  -16.7136 -10.8957 15.097
LeftLeg  27.1523 -16.9711 -8.9136
LeftFoot  -12.7051 -0.111232 -15.6283
LeftToes  5.08156e-010 -6.90346e-011 -6.33378e-011
